<svg id="Layer_1" enable-background="new 0 0 128 128" height="512" viewBox="0 0 128 128" width="512" xmlns="http://www.w3.org/2000/svg"><g><circle cx="66" cy="66" fill="#e6e7e8" r="58.5"/><g><g><circle cx="62" cy="62" fill="#6dc9f7" r="57.5"/><g><path d="m23.314 72.19-17.004 4.18c6.382 24.803 28.896 43.13 55.69 43.13v-17.5c-18.569 0-34.179-12.655-38.686-29.81z" fill="#0089ef"/></g><g><path d="m108.204 27.776-14.062 10.416c4.936 6.652 7.858 14.888 7.858 23.808 0 22.091-17.909 40-40 40v17.5c31.756 0 57.5-25.744 57.5-57.5 0-12.822-4.201-24.661-11.296-34.224z" fill="#fa759e"/></g><path d="m94.142 38.192 14.062-10.416c-10.477-14.121-27.27-23.276-46.204-23.276v17.5c13.172 0 24.854 6.368 32.142 16.192z" fill="#ffd7e5"/><circle cx="62" cy="62" fill="#d4fbff" r="40"/><path d="m62 99c-21.588 0-39.172-17.105-39.962-38.5-.018.499-.038.997-.038 1.5 0 22.091 17.909 40 40 40s40-17.909 40-40c0-.503-.02-1.001-.038-1.5-.79 21.395-18.374 38.5-39.962 38.5z" fill="#fff"/></g><g><g><path d="m35.913 69.397h8.619v12.71h-8.619z" fill="#6dc9f7"/><path d="m50.431 59.807h8.619v22.301h-8.619z" fill="#0089ef"/><path d="m64.95 64.61h8.619v17.497h-8.619z" fill="#6dc9f7"/><path d="m79.468 53.273h8.619v28.834h-8.619z" fill="#0089ef"/></g><circle cx="40.222" cy="58.797" fill="#6dc9f7" r="2.882"/><circle cx="54.741" cy="45.731" fill="#0089ef" r="2.882"/><circle cx="69.259" cy="53.032" fill="#6dc9f7" r="2.882"/><g><circle cx="83.778" cy="39.775" fill="#0089ef" r="2.882"/><g fill="#3a2c60"><path d="m62 3.5c-32.257 0-58.5 26.243-58.5 58.5s26.243 58.5 58.5 58.5c17.252 0 33.542-7.563 44.692-20.751.356-.422.304-1.053-.118-1.409-.421-.358-1.052-.304-1.409.118-10.553 12.481-25.875 19.728-42.165 20.015v-15.498c22.146-.535 40-18.703 40-40.975 0-8.772-2.778-16.903-7.488-23.577l12.45-9.222c6.623 9.255 10.538 20.575 10.538 32.799 0 6.493-1.091 12.857-3.244 18.916-.185.521.087 1.093.607 1.277.519.181 1.092-.088 1.277-.607 2.23-6.274 3.36-12.864 3.36-19.586 0-32.257-26.243-58.5-58.5-58.5zm-1 2.025v15.5c-22.146.535-40 18.703-40 40.975 0 3.255.393 6.418 1.113 9.456l-15.05 3.7c-1.012-4.224-1.563-8.626-1.563-13.156 0-30.819 24.807-55.937 55.5-56.475zm-53.437 71.567 15.059-3.702c4.86 16.775 20.162 29.146 38.378 29.585v15.5c-25.487-.447-46.902-17.844-53.437-41.383zm54.437 23.908c-21.505 0-39-17.495-39-39s17.495-39 39-39 39 17.495 39 39-17.495 39-39 39zm32.319-64.183c-7.318-9.371-18.608-15.485-31.319-15.792v-15.5c17.805.312 33.622 8.893 43.771 22.068z"/><path d="m114.837 84.742c-.504-.228-1.096-.004-1.323.499-1.455 3.22-3.226 6.321-5.263 9.219-.318.452-.209 1.075.243 1.394.175.123.375.182.574.182.315 0 .625-.148.819-.425 2.109-3.001 3.943-6.212 5.449-9.545.228-.504.004-1.096-.499-1.324z"/><path d="m89.087 53.273c0-.553-.448-1-1-1h-8.619c-.552 0-1 .447-1 1v27.834h-3.899v-16.497c0-.553-.448-1-1-1h-8.619c-.552 0-1 .447-1 1v16.497h-3.9v-21.3c0-.553-.448-1-1-1h-8.619c-.552 0-1 .447-1 1v21.301h-3.899v-11.71c0-.553-.448-1-1-1h-8.619c-.552 0-1 .447-1 1v11.71h-1.74c-.552 0-1 .447-1 1s.448 1 1 1h57.655c.552 0 1-.447 1-1s-.448-1-1-1h-1.74v-27.835zm-52.174 27.834v-10.71h6.619v10.71zm14.518 0v-20.3h6.619v20.301h-6.619zm14.519 0v-15.497h6.619v15.497zm14.518 0v-26.834h6.619v26.834z"/><path d="m40.222 62.679c2.141 0 3.882-1.741 3.882-3.882 0-.626-.163-1.21-.428-1.735l9.035-8.037c.592.366 1.283.588 2.029.588 1.13 0 2.14-.494 2.85-1.267l7.909 3.765c-.073.297-.123.602-.123.921 0 2.141 1.742 3.883 3.882 3.883s3.882-1.742 3.882-3.883c0-.688-.195-1.324-.51-1.885l9.134-8.069c.589.36 1.273.579 2.012.579 2.141 0 3.882-1.742 3.882-3.883s-1.742-3.882-3.882-3.882-3.882 1.741-3.882 3.882c0 .675.188 1.3.493 1.854l-9.15 8.083c-.582-.348-1.253-.561-1.979-.561-1.101 0-2.091.465-2.798 1.204l-7.937-3.778c.061-.273.099-.554.099-.844 0-2.141-1.742-3.883-3.882-3.883s-3.882 1.742-3.882 3.883c0 .668.185 1.287.483 1.836l-8.985 7.992c-.613-.406-1.346-.645-2.135-.645-2.141 0-3.882 1.741-3.882 3.882s1.743 3.882 3.883 3.882zm43.556-24.786c1.038 0 1.882.844 1.882 1.882s-.844 1.883-1.882 1.883-1.882-.845-1.882-1.883.844-1.882 1.882-1.882zm-14.519 13.257c1.038 0 1.882.844 1.882 1.882s-.844 1.883-1.882 1.883-1.882-.845-1.882-1.883.844-1.882 1.882-1.882zm-14.518-7.301c1.038 0 1.882.845 1.882 1.883s-.844 1.882-1.882 1.882-1.882-.844-1.882-1.882.844-1.883 1.882-1.883zm-14.519 13.066c1.038 0 1.882.844 1.882 1.882s-.844 1.882-1.882 1.882-1.882-.844-1.882-1.882.844-1.882 1.882-1.882z"/></g></g></g></g></g></svg>