<svg id="Layer_1" enable-background="new 0 0 256 256" height="512" viewBox="0 0 256 256" width="512" xmlns="http://www.w3.org/2000/svg"><g><g fill="#846f75"><path d="m51.404 131.987c10.02 0 18.172-8.152 18.172-18.172s-8.152-18.172-18.172-18.172-18.172 8.152-18.172 18.172 8.153 18.172 18.172 18.172zm0-31.345c7.263 0 13.172 5.909 13.172 13.172s-5.909 13.172-13.172 13.172-13.172-5.909-13.172-13.172 5.91-13.172 13.172-13.172z"/><path d="m71.517 213.532h-12.389v-77.776c0-1.381-1.119-2.5-2.5-2.5s-2.5 1.119-2.5 2.5v77.776h-5.447v-77.776c0-1.381-1.119-2.5-2.5-2.5s-2.5 1.119-2.5 2.5v77.776h-12.389c-1.381 0-2.5 1.119-2.5 2.5v10.11c0 1.381 1.119 2.5 2.5 2.5h40.225c1.381 0 2.5-1.119 2.5-2.5v-10.11c0-1.381-1.12-2.5-2.5-2.5zm-2.5 10.11h-35.225v-5.11h35.225z"/><path d="m204.596 131.987c10.02 0 18.172-8.152 18.172-18.172s-8.152-18.172-18.172-18.172-18.172 8.152-18.172 18.172 8.152 18.172 18.172 18.172zm0-31.345c7.263 0 13.172 5.909 13.172 13.172s-5.909 13.172-13.172 13.172-13.172-5.909-13.172-13.172 5.909-13.172 13.172-13.172z"/><path d="m224.708 213.532h-12.389v-77.776c0-1.381-1.119-2.5-2.5-2.5s-2.5 1.119-2.5 2.5v77.776h-5.447v-77.776c0-1.381-1.119-2.5-2.5-2.5s-2.5 1.119-2.5 2.5v77.776h-12.389c-1.381 0-2.5 1.119-2.5 2.5v10.11c0 1.381 1.119 2.5 2.5 2.5h40.225c1.381 0 2.5-1.119 2.5-2.5v-10.11c0-1.381-1.119-2.5-2.5-2.5zm-2.5 10.11h-35.225v-5.11h35.225z"/><path d="m168.667 218.153h-81.334c-1.381 0-2.5 1.119-2.5 2.5s1.119 2.5 2.5 2.5h81.334c1.381 0 2.5-1.119 2.5-2.5s-1.119-2.5-2.5-2.5z"/><path d="m105.313 95.642c-1.381 0-2.5 1.119-2.5 2.5s1.119 2.5 2.5 2.5h45.373c1.381 0 2.5-1.119 2.5-2.5s-1.119-2.5-2.5-2.5z"/><path d="m95.146 98.142c0-1.381-1.119-2.5-2.5-2.5h-4.876v-33.543c3.804-1.09 6.599-4.592 6.599-8.741 0-5.017-4.082-9.098-9.099-9.098s-9.098 4.082-9.098 9.098c0 4.149 2.794 7.651 6.598 8.741v33.543h-4.875c-1.381 0-2.5 1.119-2.5 2.5s1.119 2.5 2.5 2.5h14.751c1.38 0 2.5-1.119 2.5-2.5zm-13.974-44.784c0-2.26 1.838-4.098 4.098-4.098s4.099 1.838 4.099 4.098-1.839 4.098-4.099 4.098-4.098-1.838-4.098-4.098z"/><path d="m179.184 95.642h-4.875v-33.543c3.803-1.09 6.599-4.592 6.599-8.741 0-5.017-4.082-9.098-9.099-9.098s-9.099 4.082-9.099 9.098c0 4.149 2.795 7.651 6.599 8.741v33.543h-4.875c-1.381 0-2.5 1.119-2.5 2.5s1.119 2.5 2.5 2.5h14.75c1.381 0 2.5-1.119 2.5-2.5s-1.12-2.5-2.5-2.5zm-11.474-42.284c0-2.26 1.839-4.098 4.099-4.098s4.099 1.838 4.099 4.098-1.839 4.098-4.099 4.098-4.099-1.838-4.099-4.098z"/><path d="m127.997 78.987c14.234 0 25.814-11.581 25.814-25.815s-11.58-25.814-25.814-25.814-25.814 11.58-25.814 25.814 11.58 25.815 25.814 25.815zm16.319-12.934c-2.896-3.658-4.48-8.145-4.48-12.881s1.584-9.223 4.48-12.881c2.806 3.547 4.496 8.017 4.496 12.881s-1.69 9.334-4.496 12.881zm-3.58-29.306c-3.82 4.614-5.9 10.359-5.9 16.425s2.08 11.812 5.9 16.426c-3.525 2.74-7.938 4.389-12.739 4.389s-9.214-1.649-12.739-4.389c3.82-4.614 5.9-10.36 5.9-16.426s-2.08-11.811-5.9-16.425c3.525-2.74 7.938-4.389 12.739-4.389s9.214 1.649 12.739 4.389zm-29.058 3.545c2.896 3.658 4.48 8.145 4.48 12.881s-1.584 9.223-4.48 12.881c-2.806-3.548-4.496-8.017-4.496-12.881.001-4.864 1.69-9.334 4.496-12.881z"/></g><path d="m151.209 197.505c-1.337 0-2.675-.424-3.842-1.271l-18.465-13.416c-.539-.392-1.266-.392-1.805 0l-18.465 13.416c-2.335 1.695-5.351 1.694-7.684 0-2.334-1.696-3.266-4.564-2.375-7.307l7.054-21.707c.206-.635-.018-1.325-.558-1.717l-18.466-13.416c-2.333-1.695-3.266-4.563-2.374-7.307s3.331-4.517 6.216-4.517h22.824c.667 0 1.254-.426 1.46-1.061l7.054-21.707c.892-2.744 3.331-4.516 6.216-4.516s5.324 1.772 6.216 4.516l7.054 21.707c.206.635.793 1.061 1.46 1.061h22.824c2.885 0 5.324 1.773 6.216 4.517.892 2.743-.041 5.611-2.374 7.307l-18.465 13.416c-.541.393-.765 1.083-.559 1.718l7.054 21.707c.891 2.743-.041 5.611-2.375 7.307-1.165.846-2.503 1.27-3.841 1.27zm-23.209-19.984c1.347 0 2.692.417 3.842 1.252l18.465 13.416c.814.591 1.534.198 1.806 0 .271-.197.869-.759.558-1.717l-7.054-21.707c-.877-2.702.077-5.638 2.376-7.308l18.464-13.415c.815-.592.662-1.398.559-1.717-.104-.319-.454-1.062-1.461-1.062h-22.824c-2.84 0-5.338-1.815-6.216-4.516l-7.054-21.707c-.311-.958-1.125-1.061-1.46-1.061s-1.149.104-1.46 1.061l-7.054 21.707c-.878 2.701-3.376 4.516-6.216 4.516h-22.825c-1.007 0-1.356.742-1.461 1.062-.104.319-.257 1.125.559 1.717l18.465 13.416c2.298 1.669 3.252 4.605 2.375 7.307l-7.054 21.708c-.312.958.286 1.52.558 1.717.271.198.991.59 1.806 0l18.465-13.416c1.149-.836 2.494-1.253 3.841-1.253z" fill="#ed9abc"/></g></svg>