<svg id="Capa_1" enable-background="new 0 0 511.987 511.987" height="512" viewBox="0 0 511.987 511.987" width="512" xmlns="http://www.w3.org/2000/svg"><g><path d="m266.386 302.264-107.942-62.32c-7.176-4.143-16.349-1.684-20.49 5.49l-103.684 179.584c-6.571 11.434 3.518 25.338 16.45 22.582l68.015-14.386 21.659 68.097c3.98 12.679 21.211 14.549 27.814 2.997l103.704-181.616c4.094-7.17 1.625-16.3-5.526-20.428z" fill="#7dd5f4"/><path d="m477.702 424.99-103.668-179.556c-4.143-7.176-13.315-9.632-20.49-5.49l-107.942 62.32c-7.15 4.128-9.62 13.259-5.526 20.429l103.693 181.594c6.627 11.584 23.857 9.627 27.818-2.954l21.666-68.118 68.037 14.391c12.887 2.716 23.021-11.115 16.412-22.616z" fill="#5fa7ec"/><path d="m255.494 0c-96.495 0-175 78.953-175 176 0 96.495 78.505 175 175 175s175-78.505 175-175c0-97.047-78.505-176-175-176z" fill="#ffdd54"/><path d="m430.494 176c0-97.047-78.505-176-175-176v351c96.495 0 175-78.505 175-175z" fill="#ff9d21"/><path d="m255.494 152.573c-32.659 0-59.229 26.569-59.229 59.229v2.146c0 21.961 20.991 37.808 42.119 31.771.673 0 15.27-5.416 34.221 0 21.117 6.032 42.119-9.797 42.119-31.771v-2.146c-.001-32.66-26.571-59.229-59.23-59.229z" fill="#784033"/><path d="m272.604 245.718c21.117 6.032 42.119-9.797 42.119-31.771v-2.146c0-32.659-26.57-59.229-59.229-59.229v90.745c5.756.001 11.513.801 17.11 2.401z" fill="#61362b"/><path d="m318.423 142.529c-.883-8.67-8.887-14.919-17.86-13.239-8.071 1.675-13.348 9.317-11.78 17.64 1.671 8.059 9.295 13.342 17.64 11.78 7.998-1.676 12.744-8.933 12-16.181z" fill="#61362b"/><path d="m240.784 126.929c1.631 7.868 8.804 12.741 16.19 11.99 8.441-.876 14.259-8.34 13.44-16.4-.688-8.243-8.581-14.964-17.85-13.229-7.944 1.648-13.371 9.197-11.78 17.639z" fill="#784033"/><path d="m270.414 122.519c-.607-7.271-6.976-13.525-14.92-13.525v30.006c8.847 0 15.815-7.671 14.92-16.481z" fill="#61362b"/><path d="m197.984 155.599c6.398 5.23 15.879 4.32 21.11-2.09 5.342-6.555 4.166-15.996-2.09-21.11-6.768-5.515-16.941-4.201-21.98 3.271-4.404 6.689-2.802 15.235 2.96 19.929z" fill="#784033"/></g></svg>