<svg id="Capa_1" enable-background="new 0 0 512.003 512.003" height="512" viewBox="0 0 512.003 512.003" width="512" xmlns="http://www.w3.org/2000/svg"><g><path d="m411.341 60.003h-81.94l-73.4-28.88-73.4 28.88h-81.94l149.85-58.96c3.53-1.39 7.45-1.39 10.98 0z" fill="#55696e"/><path d="m411.341 60.003h-81.94l-73.4-28.88v-31.12c1.86 0 3.72.34 5.49 1.04z" fill="#495959"/><path d="m271.001 424.583v-15.97h-30v15.97c-17.46 6.19-30 22.87-30 42.42 0 24.81 20.19 45 45 45s45-20.19 45-45c0-19.55-12.54-36.23-30-42.42zm-15 57.42c-8.27 0-15-6.73-15-15 0-7.48 5.51-13.69 12.69-14.8.75.11 1.52.19 2.31.19s1.56-.08 2.31-.19c7.18 1.11 12.69 7.32 12.69 14.8 0 8.27-6.73 15-15 15z" fill="#55696e"/><path d="m271.001 424.583v-15.97h-15v43.78c.79 0 1.56-.08 2.31-.19 7.18 1.11 12.69 7.32 12.69 14.8 0 8.27-6.73 15-15 15v30c24.81 0 45-20.19 45-45 0-19.55-12.54-36.23-30-42.42z" fill="#495959"/><path d="m481.001 130.003v268.61c0 8.28-6.72 15-15 15h-420c-8.28 0-15-6.72-15-15v-268.61z" fill="#f5f2f1"/><path d="m481.001 130.003v268.61c0 8.28-6.72 15-15 15h-210v-283.61z" fill="#e8e1de"/><path d="m180.951 266.003v65h-84.9l-5-5v-60c0-8.28 6.72-15 15-15h59.9c8.28 0 15 6.72 15 15z" fill="#3bc9ea"/><path d="m300.951 235.503v95.5h-90v-95.5c0-8.28 6.72-15 15-15h60c8.28 0 15 6.72 15 15z" fill="#fedd33"/><path d="m300.951 235.503v95.5h-44.95v-110.5h29.95c8.28 0 15 6.72 15 15z" fill="#fbbd43"/><path d="m420.951 206.003v120l-5 5h-85v-125c0-8.28 6.72-15 15-15h60c8.28 0 15 6.72 15 15z" fill="#0abf9c"/><path d="m497.001 55.003h-482c-8.284 0-15 6.716-15 15v50c0 8.284 6.716 15 15 15h482c8.284 0 15-6.716 15-15v-50c0-8.285-6.716-15-15-15z" fill="#f47160"/><path d="m512.001 70.003v50c0 8.28-6.72 15-15 15h-241v-80h241c8.28 0 15 6.72 15 15z" fill="#fc5832"/><path d="m420.951 326.003v15c0 8.284-6.716 15-15 15h-299.9c-8.284 0-15-6.716-15-15v-15z" fill="#e8e1de"/><path d="m420.951 326.003v15c0 8.28-6.72 15-15 15h-149.95v-30z" fill="#dbd1cc"/></g></svg>